<svg width="64" height="65" viewBox="0 0 64 65" fill="none" xmlns="http://www.w3.org/2000/svg">
<path d="M51.4375 35.625H14.1875C12.4612 35.625 11.0625 34.2263 11.0625 32.5C11.0625 30.7737 12.4612 29.375 14.1875 29.375H51.4375C53.1637 29.375 54.5625 30.7737 54.5625 32.5C54.5625 34.2263 53.1637 35.625 51.4375 35.625Z" fill="white"/>
<path d="M28.4988 50.4062C27.7388 50.4062 26.9763 50.13 26.375 49.5725L10.4375 34.7912C10.1195 34.4963 9.86634 34.1384 9.69418 33.7402C9.52202 33.3421 9.43463 32.9125 9.43757 32.4787C9.44051 32.045 9.53372 31.6166 9.71126 31.2208C9.8888 30.8251 10.1468 30.4706 10.4688 30.18L26.8438 15.3987C28.125 14.2425 30.1013 14.3437 31.2575 15.625C32.4138 16.9062 32.3125 18.8825 31.0313 20.0387L17.1913 32.5312L30.625 44.99C31.89 46.1637 31.965 48.1413 30.7913 49.4062C30.175 50.07 29.3388 50.4062 28.4988 50.4062Z" fill="white"/>
</svg>
