<svg width="64" height="64" viewBox="0 0 64 64" fill="none" xmlns="http://www.w3.org/2000/svg">
<path d="M51.4375 35.125H14.1875C12.4612 35.125 11.0625 33.7263 11.0625 32C11.0625 30.2737 12.4612 28.875 14.1875 28.875H51.4375C53.1637 28.875 54.5625 30.2737 54.5625 32C54.5625 33.7263 53.1637 35.125 51.4375 35.125Z" fill="white"/>
<path d="M28.4988 49.9062C27.7388 49.9062 26.9763 49.63 26.375 49.0725L10.4375 34.2912C10.1195 33.9963 9.86634 33.6384 9.69418 33.2402C9.52202 32.8421 9.43463 32.4125 9.43757 31.9787C9.44051 31.545 9.53372 31.1166 9.71126 30.7208C9.8888 30.3251 10.1468 29.9706 10.4688 29.68L26.8438 14.8987C28.125 13.7425 30.1013 13.8437 31.2575 15.125C32.4138 16.4062 32.3125 18.3825 31.0313 19.5387L17.1913 32.0312L30.625 44.49C31.89 45.6637 31.965 47.6413 30.7913 48.9062C30.175 49.57 29.3388 49.9062 28.4988 49.9062Z" fill="white"/>
</svg>
