<svg width="64" height="64" viewBox="0 0 64 64" fill="none" xmlns="http://www.w3.org/2000/svg">
<path d="M30.4287 27.0503C29.843 26.4645 29.843 25.5148 30.4287 24.929C31.0146 24.3431 31.9644 24.3431 32.55 24.929L37.5 29.8788L42.4497 24.929C43.0354 24.3431 43.9851 24.3431 44.571 24.929C45.1567 25.5146 45.1567 26.4645 44.571 27.0503L39.6211 32L44.571 36.9498C45.1567 37.5355 45.1567 38.4854 44.571 39.071C43.9851 39.6569 43.0354 39.6569 42.4497 39.071L37.5 34.1213L32.55 39.071C31.9644 39.6569 31.0146 39.6569 30.429 39.071C29.843 38.4852 29.843 37.5355 30.429 36.9497L35.3787 32.0001L30.4287 27.0503Z" fill="#2B2A29"/>
<path fill-rule="evenodd" clip-rule="evenodd" d="M24.2427 16.7573L9 32L24.2427 47.2427C25.3679 48.3679 26.894 49 28.4854 49H49C52.3137 49 55 46.3137 55 43V21C55 17.6863 52.3137 15 49 15H28.4854C26.894 15 25.3679 15.6322 24.2427 16.7573ZM49 46.4H28.4854C27.5835 46.4 26.7188 46.0417 26.0811 45.4042L12.677 32L26.0811 18.5958C26.7188 17.9583 27.5835 17.6 28.4854 17.6H49C50.8777 17.6 52.3999 19.1222 52.3999 21V43C52.3999 44.8778 50.8777 46.4 49 46.4Z" fill="#2B2A29"/>
</svg>
