<svg width="64" height="64" viewBox="0 0 64 64" fill="none" xmlns="http://www.w3.org/2000/svg">
    <path d="M19.8402 19.84C20.5902 19.0909 21.6068 18.6702 22.6669 18.6702C23.7269 18.6702 24.7435 19.0909 25.4935 19.84L32.0002 26.3413L38.5069 19.8346C39.2616 19.1064 40.2722 18.7037 41.321 18.7133C42.3698 18.7229 43.3728 19.144 44.1141 19.886C44.8554 20.628 45.2756 21.6314 45.2842 22.6802C45.2928 23.729 44.8892 24.7393 44.1602 25.4933L37.6589 32L44.1655 38.5066C44.8938 39.2614 45.2965 40.272 45.2869 41.3208C45.2773 42.3696 44.8562 43.3726 44.1142 44.1139C43.3722 44.8552 42.3687 45.2754 41.3199 45.284C40.2711 45.2926 39.2609 44.889 38.5069 44.16L32.0002 37.6586L25.4935 44.1653C24.7388 44.8936 23.7282 45.2963 22.6794 45.2867C21.6306 45.2771 20.6275 44.8559 19.8862 44.114C19.145 43.372 18.7248 42.3685 18.7161 41.3197C18.7075 40.2709 19.1112 39.2607 19.8402 38.5066L26.3415 32L19.8349 25.4933C19.0858 24.7433 18.665 23.7266 18.665 22.6666C18.665 21.6066 19.0858 20.59 19.8349 19.84"
          fill="#8B8785"/>
</svg>
