<svg width="64" height="64" viewBox="0 0 64 64" fill="none" xmlns="http://www.w3.org/2000/svg">
<path fill-rule="evenodd" clip-rule="evenodd" d="M31.9993 61.3334C48.1993 61.3334 61.3327 48.2001 61.3327 32.0001C61.3327 15.8001 48.1993 2.66675 31.9993 2.66675C15.7993 2.66675 2.66602 15.8001 2.66602 32.0001C2.66602 48.2001 15.7993 61.3334 31.9993 61.3334ZM19.4473 44.5521C18.9474 44.052 18.6666 43.3739 18.6666 42.6667C18.6666 41.9596 18.9474 41.2815 19.4473 40.7814L28.2287 32.0001L19.4473 23.2187C18.9616 22.7158 18.6928 22.0422 18.6989 21.343C18.705 20.6438 18.9854 19.975 19.4798 19.4806C19.9743 18.9861 20.6431 18.7057 21.3423 18.6996C22.0415 18.6935 22.7151 18.9623 23.218 19.4481L31.9993 28.2294L40.7807 19.4481C41.0267 19.1934 41.3209 18.9902 41.6463 18.8505C41.9716 18.7107 42.3215 18.6372 42.6756 18.6341C43.0297 18.631 43.3808 18.6985 43.7086 18.8326C44.0363 18.9666 44.334 19.1646 44.5844 19.415C44.8348 19.6654 45.0328 19.9631 45.1669 20.2909C45.301 20.6186 45.3684 20.9697 45.3654 21.3238C45.3623 21.6779 45.2887 22.0278 45.149 22.3532C45.0092 22.6785 44.806 22.9728 44.5514 23.2187L35.77 32.0001L44.5514 40.7814C45.0371 41.2844 45.3059 41.958 45.2998 42.6572C45.2937 43.3563 45.0133 44.0252 44.5189 44.5196C44.0244 45.014 43.3556 45.2945 42.6564 45.3005C41.9572 45.3066 41.2836 45.0378 40.7807 44.5521L31.9993 35.7707L23.218 44.5521C22.7179 45.052 22.0398 45.3328 21.3327 45.3328C20.6256 45.3328 19.9474 45.052 19.4473 44.5521Z" fill="#FFF9E0"/>
</svg>
