<svg width="64" height="65" viewBox="0 0 64 65" fill="none" xmlns="http://www.w3.org/2000/svg">
<path d="M57.8932 54.6067L50.3466 47.0867C54.4377 42.0325 56.4335 35.6011 55.9223 29.1187C55.4112 22.6363 52.4321 16.5972 47.5993 12.2466C42.7666 7.89608 36.4487 5.56583 29.9484 5.73637C23.4481 5.90692 17.2611 8.56525 12.6631 13.1632C8.06516 17.7612 5.40682 23.9482 5.23628 30.4485C5.06574 36.9488 7.39599 43.2667 11.7465 48.0994C16.0971 52.9321 22.1362 55.9113 28.6186 56.4224C35.101 56.9336 41.5324 54.9378 46.5866 50.8467L54.1066 58.3933C54.3545 58.6433 54.6494 58.8417 54.9744 58.9771C55.2993 59.1124 55.6479 59.1821 55.9999 59.1821C56.352 59.1821 56.7005 59.1124 57.0255 58.9771C57.3504 58.8417 57.6453 58.6433 57.8932 58.3933C58.1432 58.1454 58.3416 57.8505 58.477 57.5256C58.6124 57.2006 58.682 56.852 58.682 56.5C58.682 56.148 58.6124 55.7994 58.477 55.4745C58.3416 55.1495 58.1432 54.8546 57.8932 54.6067ZM10.6666 31.1667C10.6666 27.2111 11.8396 23.3443 14.0372 20.0553C16.2348 16.7663 19.3584 14.2028 23.0129 12.6891C26.6674 11.1753 30.6888 10.7793 34.5684 11.551C38.448 12.3227 42.0117 14.2275 44.8087 17.0245C47.6058 19.8216 49.5106 23.3852 50.2823 27.2649C51.054 31.1445 50.6579 35.1658 49.1442 38.8203C47.6304 42.4749 45.067 45.5984 41.778 47.7961C38.489 49.9937 34.6222 51.1667 30.6666 51.1667C25.3623 51.1667 20.2752 49.0595 16.5244 45.3088C12.7737 41.5581 10.6666 36.471 10.6666 31.1667Z" fill="white"/>
</svg>
