<svg width="48" height="48" viewBox="0 0 48 48" fill="none" xmlns="http://www.w3.org/2000/svg">
<g clip-path="url(#clip0_2020_231)">
<path d="M40.9705 7.02947C36.4375 2.49638 30.4106 0 24 0C17.5894 0 11.5624 2.49638 7.02947 7.02938C2.49638 11.5624 0 17.5894 0 24C0 30.4106 2.49638 36.4375 7.02947 40.9705C11.5624 45.5035 17.5894 47.9999 24 47.9999C30.4107 47.9999 36.4375 45.5035 40.9706 40.9704C45.5035 36.4375 48 30.4105 48 23.9999C48 17.5893 45.5035 11.5624 40.9705 7.02947ZM9.02025 9.02025C11.1307 6.90984 13.6082 5.30016 16.3086 4.2495C15.5893 5.14744 14.9163 6.17953 14.2995 7.34034C13.5832 8.68847 12.9651 10.1691 12.4503 11.7505C10.667 11.4546 9.01463 11.0906 7.53844 10.6635C8.00398 10.0908 8.49857 9.54233 9.02025 9.02025ZM5.83397 13.0861C7.56056 13.6389 9.53512 14.1052 11.6897 14.4744C11.0897 17.0212 10.7365 19.7618 10.6523 22.5923H2.86275C3.084 19.1955 4.10419 15.9536 5.83397 13.0861ZM5.68069 34.6536C4.04428 31.8505 3.07734 28.7022 2.86266 25.4077H10.6576C10.7497 28.1573 11.0958 30.8199 11.6755 33.3001C9.47672 33.6565 7.45256 34.1109 5.68069 34.6536ZM9.02025 38.9798C8.4269 38.3861 7.86873 37.7583 7.34859 37.0996C8.87887 36.6753 10.5896 36.3159 12.4312 36.0277C12.9496 37.6312 13.5743 39.1313 14.2994 40.4961C14.9716 41.761 15.7106 42.8725 16.5035 43.8247C13.7275 42.7763 11.1814 41.1407 9.02025 38.9798ZM22.5922 44.8233C20.454 44.2243 18.4312 42.2717 16.7858 39.1749C16.2102 38.0919 15.7047 36.9104 15.2717 35.6512C17.5901 35.396 20.0572 35.2451 22.5922 35.2097V44.8233ZM22.5922 32.3941C19.7809 32.4324 17.0407 32.609 14.4744 32.9104C13.9084 30.5703 13.5678 28.0374 13.4743 25.4077H22.5923V32.3941H22.5922ZM22.5922 22.5922H13.469C13.5544 19.8891 13.9004 17.2855 14.4841 14.8859C17.0339 15.2047 19.7684 15.3985 22.5922 15.454V22.5922ZM22.5922 12.6383C20.0473 12.587 17.5857 12.421 15.2837 12.1503C15.7141 10.9042 16.2157 9.73453 16.7858 8.66138C18.4312 5.56462 20.454 3.612 22.5922 3.01303V12.6383ZM42.2547 13.2356C43.9304 16.0662 44.9198 19.2543 45.1374 22.5922H37.3479C37.2646 19.7944 36.9182 17.0845 36.3307 14.5628C38.4995 14.2126 40.4985 13.767 42.2547 13.2356ZM38.9797 9.02025C39.5404 9.58158 40.0698 10.1734 40.5653 10.7931C39.0585 11.2045 37.3805 11.5538 35.5775 11.8348C35.0573 10.2216 34.4297 8.71247 33.7006 7.34034C33.0838 6.17953 32.4108 5.14744 31.6915 4.2495C34.3917 5.30016 36.8693 6.90984 38.9797 9.02025ZM25.4077 25.4077H34.5258C34.4317 28.0579 34.0865 30.6099 33.5123 32.9651C30.9629 32.6482 28.2296 32.4561 25.4077 32.4021V25.4077ZM25.4077 22.5922V15.4634C28.2207 15.4265 30.9631 15.2514 33.5317 14.9512C34.106 17.3327 34.4464 19.9135 34.531 22.5922H25.4077ZM25.4076 3.01303H25.4077C27.5459 3.612 29.5687 5.56462 31.2142 8.66138C31.7933 9.75141 32.3018 10.9412 32.7367 12.2096C30.4151 12.4639 27.9453 12.6136 25.4076 12.6478V3.01303ZM25.4077 44.8233V35.2178C27.9502 35.2677 30.41 35.4322 32.7112 35.7012C32.2819 36.9417 31.782 38.1063 31.2142 39.1749C29.5688 42.2717 27.546 44.2243 25.4077 44.8233ZM38.9797 38.9798C36.8186 41.1408 34.2725 42.7762 31.4964 43.8246C32.2893 42.8724 33.0283 41.761 33.7005 40.4961C34.4149 39.1516 35.0316 37.6753 35.5455 36.0986C37.3703 36.3998 39.0586 36.7723 40.5625 37.2104C40.0678 37.8288 39.5393 38.4194 38.9797 38.9798ZM42.2443 34.7821C40.4973 34.2204 38.4943 33.7478 36.3075 33.3749C36.8978 30.8737 37.2495 28.1849 37.3426 25.4077H45.1375C44.9193 28.7526 43.9265 31.9471 42.2443 34.7821Z" fill="#2B2A29"/>
</g>
<defs>
<clipPath id="clip0_2020_231">
<rect width="48" height="48" fill="white"/>
</clipPath>
</defs>
</svg>
